<svg fill="none" viewBox="0 0 20 20" xmlns="http://www.w3.org/2000/svg">
  <g clip-path="url(#Add-Extension-Chrome-20_svg__a)">
    <g clip-path="url(#Add-Extension-Chrome-20_svg__b)">
      <path fill="url(#Add-Extension-Chrome-20_svg__c)" d="M9.998 5.515h7.766a8.967 8.967 0 0 0-15.532.001l3.883 6.726.003-.001a4.479 4.479 0 0 1 3.88-6.726Z"/>
      <path fill="url(#Add-Extension-Chrome-20_svg__d)" d="m13.884 12.241-3.882 6.726a8.967 8.967 0 0 0 7.765-13.452H10v.003a4.479 4.479 0 0 1 3.884 6.723Z"/>
      <path fill="url(#Add-Extension-Chrome-20_svg__e)" d="M6.117 12.243 2.234 5.518a8.966 8.966 0 0 0 7.767 13.45l3.883-6.725-.002-.002a4.479 4.479 0 0 1-7.765.002Z"/>
      <path fill="#fff" d="M10 14.484a4.484 4.484 0 1 0 0-8.968 4.484 4.484 0 0 0 0 8.968Z"/>
      <path fill="#1A73E8" d="M10 13.55a3.55 3.55 0 1 0 0-7.1 3.55 3.55 0 0 0 0 7.1Z"/>
    </g>
    <path fill="#fff" d="M15 19a4 4 0 1 0 0-8 4 4 0 0 0 0 8Z"/>
    <path fill="#3969EF" d="M14.25 13.25a.75.75 0 0 1 1.5 0v3.5a.75.75 0 0 1-1.5 0v-3.5Z"/>
    <path fill="#3969EF" d="M16.75 14.25a.75.75 0 0 1 0 1.5h-3.5a.75.75 0 0 1 0-1.5h3.5Z"/>
  </g>
  <defs>
    <linearGradient id="Add-Extension-Chrome-20_svg__c" x1="16.795" x2="9.029" y1="4.956" y2="18.407" gradientUnits="userSpaceOnUse">
      <stop stop-color="#D93025"/>
      <stop offset="1" stop-color="#EA4335"/>
    </linearGradient>
    <linearGradient id="Add-Extension-Chrome-20_svg__d" x1="18.276" x2="2.744" y1="6.636" y2="6.636" gradientUnits="userSpaceOnUse">
      <stop stop-color="#FCC934"/>
      <stop offset="1" stop-color="#FBBC04"/>
    </linearGradient>
    <linearGradient id="Add-Extension-Chrome-20_svg__e" x1="10.971" x2="3.205" y1="18.409" y2="4.957" gradientUnits="userSpaceOnUse">
      <stop stop-color="#1E8E3E"/>
      <stop offset="1" stop-color="#34A853"/>
    </linearGradient>
    <clipPath id="Add-Extension-Chrome-20_svg__a">
      <path fill="#fff" d="M0 0h20v20H0z"/>
    </clipPath>
    <clipPath id="Add-Extension-Chrome-20_svg__b">
      <path fill="#fff" d="M1.031 1.031H18.97V18.97H1.031z"/>
    </clipPath>
  </defs>
</svg>